<svg width="135" height="57" viewBox="0 0 135 57" fill="none" xmlns="http://www.w3.org/2000/svg">
<path d="M107.915 34.3451C106.836 34.3451 105.516 34.8799 104.742 35.3841L104.523 34.8086C104.467 34.6558 104.32 34.559 104.157 34.559H102.43C102.216 34.559 102.038 34.7322 102.038 34.9512V47.9949C102.038 48.2089 102.216 48.3871 102.43 48.3871H104.691C104.91 48.3871 105.084 48.2139 105.084 47.9949V44.7811C105.802 44.9543 106.881 45.0765 107.707 45.0765C110.044 45.0765 111.175 43.8338 111.175 41.2668V38.1548C111.175 35.0072 109.403 34.3451 107.915 34.3451ZM108.129 41.2617C108.129 42.0359 107.757 42.428 107.029 42.428C106.377 42.428 105.593 42.2956 105.084 42.1734V37.7932C105.537 37.4061 106.336 36.9885 107.029 36.9885C107.773 36.9885 108.129 37.3705 108.129 38.1497V41.2617ZM45.0446 26.6238H50.6624C53.2956 26.6238 54.7472 25.4269 54.7472 23.2571V21.882C54.7472 20.6392 53.8966 19.5696 52.6743 19.2793C53.7388 18.8158 54.2379 18.1079 54.2379 17.0587V15.6224C54.2379 14.2931 53.8202 12.5308 50.2193 12.5308H45.0446C44.8256 12.5308 44.6524 12.7091 44.6524 12.923V26.2316C44.6524 26.4455 44.8256 26.6238 45.0446 26.6238ZM47.8255 15.0927H49.7966C50.637 15.0927 51.0648 15.4289 51.0648 16.0859V17.3134C51.0648 17.5476 50.9731 18.3065 49.7966 18.3065H47.8255V15.0876V15.0927ZM47.8255 20.7869H50.2397C50.7388 20.7869 51.569 20.9397 51.569 21.9736V22.8446C51.569 23.7053 51.0393 24.0721 49.7915 24.0721H47.8204V20.792L47.8255 20.7869ZM131.772 30.7951C130.453 30.7951 129.358 31.8189 129.358 33.2348C129.358 34.6507 130.453 35.6744 131.772 35.6744C133.091 35.6744 134.186 34.6456 134.186 33.2348C134.186 31.8239 133.091 30.7951 131.772 30.7951ZM131.772 35.2772C130.667 35.2772 129.76 34.4215 129.76 33.2348C129.76 32.048 130.667 31.1822 131.772 31.1822C132.877 31.1822 133.774 32.0379 133.774 33.2348C133.774 34.4317 132.882 35.2772 131.772 35.2772ZM14.2255 0.556641H5.36331C2.90328 0.556641 0.906738 2.55318 0.906738 5.01321V52.1001C0.906738 54.5601 2.90328 56.5566 5.36331 56.5566H14.2255C14.5922 56.5566 14.8927 56.2561 14.8927 55.8894V50.2716C14.8927 49.9049 14.5922 49.6044 14.2255 49.6044H10.8996C9.25963 49.6044 7.93029 48.2751 7.93029 46.635V10.4731C7.93029 8.83313 9.25963 7.5038 10.8996 7.5038H14.2255C14.5922 7.5038 14.8927 7.2033 14.8927 6.83659V1.22385C14.8927 0.857141 14.5922 0.556641 14.2255 0.556641ZM103.632 26.6238H105.893C106.112 26.6238 106.286 26.4455 106.286 26.2316V20.3387C106.902 19.8498 107.732 19.4219 108.751 19.0756C108.909 19.0196 109.016 18.8719 109.016 18.7038V16.5901C109.016 16.4679 108.959 16.3558 108.868 16.2794C108.797 16.2234 108.71 16.1979 108.623 16.1979C108.593 16.1979 108.562 16.1979 108.527 16.2081C107.595 16.4424 106.545 16.9415 105.99 17.3134L105.848 16.6309C105.812 16.4475 105.649 16.3202 105.466 16.3202H103.637C103.418 16.3202 103.245 16.4984 103.245 16.7123V26.2367C103.245 26.4506 103.423 26.6289 103.637 26.6289L103.632 26.6238ZM27.9314 0.556641H19.0692C18.7025 0.556641 18.402 0.857141 18.402 1.22385V6.84168C18.402 7.20839 18.7025 7.50889 19.0692 7.50889H22.3951C24.0351 7.50889 25.3644 8.83822 25.3644 10.4782V17.8685C25.3644 18.3422 25.2523 18.7904 25.0537 19.1877L21.0861 27.1891C20.8722 27.6017 20.7499 28.0651 20.7499 28.5592C20.7499 29.0583 20.8722 29.5218 21.0861 29.9344L25.0537 37.9358C25.2523 38.3382 25.3593 38.7813 25.3593 39.255V39.9425V46.6452C25.3593 48.2852 24.03 49.6146 22.39 49.6146H19.0641C18.6974 49.6146 18.3969 49.9151 18.3969 50.2818V55.8996C18.3969 56.2663 18.6974 56.5668 19.0641 56.5668H27.9263C30.3863 56.5668 32.3829 54.5703 32.3829 52.1103V38.6641C32.3829 37.9205 32.1995 37.2177 31.8735 36.5963L28.8176 30.4335C28.5528 29.8681 28.4101 29.2315 28.4101 28.5694C28.4101 27.9022 28.5579 27.2706 28.8176 26.7053L31.8735 20.5475C32.1995 19.9262 32.3829 19.2233 32.3829 18.4797V5.01321C32.3829 2.55318 30.3914 0.556641 27.9314 0.556641ZM83.6003 30.1432H85.8617C86.0756 30.1432 86.2539 29.9649 86.2539 29.751V26.5372C86.972 26.7154 88.0518 26.8326 88.8769 26.8326C91.2147 26.8326 92.3454 25.5898 92.3454 23.0229V19.916C92.3454 16.7684 90.573 16.1063 89.0857 16.1063C88.006 16.1063 86.6868 16.6461 85.9126 17.1453L85.6936 16.5697C85.6376 16.4169 85.4899 16.3202 85.3269 16.3202H83.6003C83.3813 16.3202 83.2081 16.4984 83.2081 16.7123V29.7561C83.2081 29.97 83.3813 30.1483 83.6003 30.1483V30.1432ZM86.2539 19.5544C86.7072 19.1673 87.5068 18.7496 88.1995 18.7496C88.938 18.7496 89.2996 19.1316 89.2996 19.916V23.0229C89.2996 23.797 88.9278 24.1892 88.1995 24.1892C87.5425 24.1892 86.7632 24.0568 86.2539 23.9345V19.5544ZM67.0779 26.6238H69.3393C69.5532 26.6238 69.7315 26.4455 69.7315 26.2316V19.809C70.3936 19.4474 71.4072 19.0654 71.9521 19.0654C72.4462 19.0654 72.6957 19.315 72.6957 19.809V26.2316C72.6957 26.4455 72.874 26.6238 73.0879 26.6238H75.3493C75.5683 26.6238 75.7415 26.4455 75.7415 26.2316V19.809C76.4087 19.4474 77.4222 19.0654 77.9621 19.0654C78.4511 19.0654 78.7006 19.315 78.7006 19.809V26.2316C78.7006 26.4455 78.8789 26.6238 79.0979 26.6238H81.3593C81.5732 26.6238 81.7515 26.4455 81.7515 26.2316V19.4067C81.7515 17.186 80.9773 16.1063 79.3831 16.1063C78.0691 16.1063 76.5258 16.4781 75.2576 17.0994C74.8858 16.4373 74.2492 16.1063 73.3731 16.1063C72.1457 16.1063 70.4955 16.5086 69.268 17.0994L69.049 16.5596C68.9879 16.4118 68.8453 16.3151 68.6874 16.3151H67.083C66.8691 16.3151 66.6908 16.4933 66.6908 16.7073V26.2316C66.6908 26.4455 66.8691 26.6238 67.083 26.6238H67.0779ZM83.5443 34.559H81.2829C81.069 34.559 80.8907 34.7322 80.8907 34.9512V41.3737C80.2235 41.7354 79.2151 42.1123 78.665 42.1123C78.176 42.1123 77.9265 41.8627 77.9265 41.3737V34.9512C77.9265 34.7373 77.7533 34.559 77.5343 34.559H75.2729C75.0539 34.559 74.8807 34.7322 74.8807 34.9512V41.7761C74.8807 43.9968 75.6549 45.0765 77.2542 45.0765C78.4765 45.0765 80.1267 44.6792 81.3593 44.0833L81.5783 44.6232C81.6343 44.7709 81.782 44.8677 81.9399 44.8677H83.5443C83.7633 44.8677 83.9365 44.6945 83.9365 44.4755V34.9563C83.9365 34.7424 83.7582 34.5641 83.5443 34.5641V34.559ZM116.737 34.3451C113.803 34.3451 112.316 35.7304 112.316 38.4706V40.8797C112.316 43.7013 113.824 45.0714 116.93 45.0714C118.076 45.0714 119.477 44.8066 120.328 44.5774C120.501 44.5315 120.618 44.3737 120.618 44.1954V42.5706C120.618 42.4484 120.562 42.3364 120.47 42.2651C120.399 42.209 120.312 42.1785 120.226 42.1785C120.195 42.1785 120.165 42.1785 120.134 42.1887C119.192 42.4128 117.995 42.5706 117.226 42.5706C115.8 42.5706 115.367 42.2192 115.367 41.0681V40.7727H120.516C120.735 40.7727 120.908 40.5996 120.908 40.3806V38.6183C120.908 35.6999 119.584 34.3451 116.742 34.3451H116.737ZM118.025 38.491H115.362V38.0479C115.362 37.1769 115.83 36.7389 116.757 36.7389C117.684 36.7389 118.025 37.1311 118.025 38.0479V38.491ZM49.4452 34.5539H47.6574V32.4708C47.6574 32.2518 47.4843 32.0786 47.2653 32.0786H45.0039C44.79 32.0786 44.6117 32.2569 44.6117 32.4708V34.5539H43.6083C43.3893 34.5539 43.2162 34.7271 43.2162 34.9461V36.6167C43.2162 36.8357 43.3893 37.0089 43.6083 37.0089H44.6117V42.428C44.6117 44.2056 45.6303 45.0714 47.7237 45.0714C48.1668 45.0714 48.7881 44.9848 49.3942 44.8371C49.5725 44.7913 49.6947 44.6385 49.6947 44.4551V42.8508C49.6947 42.7336 49.6438 42.6216 49.5521 42.5452C49.4808 42.4892 49.3942 42.4586 49.3026 42.4586C49.2771 42.4586 49.2516 42.4586 49.2262 42.4688C48.9053 42.535 48.5386 42.5757 48.2941 42.5757C47.6625 42.5757 47.6625 42.1479 47.6625 42.0053V37.0089H49.4503C49.6693 37.0089 49.8424 36.8357 49.8424 36.6167V34.9461C49.8424 34.7322 49.6693 34.5539 49.4503 34.5539H49.4452ZM127.448 34.4317C127.417 34.4317 127.387 34.4317 127.351 34.4419C126.419 34.6762 125.37 35.1753 124.815 35.5471L124.667 34.8646C124.631 34.6812 124.468 34.5539 124.285 34.5539H122.457C122.243 34.5539 122.064 34.7271 122.064 34.9461V44.4653C122.064 44.6843 122.238 44.8575 122.457 44.8575H124.718C124.937 44.8575 125.11 44.6843 125.11 44.4653V38.5725C125.721 38.0835 126.551 37.6557 127.575 37.3043C127.733 37.2482 127.84 37.1005 127.84 36.9324V34.8188C127.84 34.6965 127.779 34.5794 127.687 34.5081C127.616 34.4521 127.534 34.4266 127.448 34.4266V34.4317ZM98.2077 34.34C96.8936 34.34 95.3504 34.7118 94.0822 35.3332C93.7104 34.6711 93.0737 34.34 92.1977 34.34C90.9753 34.34 89.3251 34.7373 88.0925 35.3332L87.8786 34.7933C87.8175 34.6456 87.6749 34.5488 87.517 34.5488H85.9076C85.6885 34.5488 85.5154 34.722 85.5154 34.941V44.4602C85.5154 44.6792 85.6885 44.8524 85.9076 44.8524H88.1689C88.388 44.8524 88.5611 44.6792 88.5611 44.4602V38.0377C89.2283 37.6761 90.2368 37.2992 90.7818 37.2992C91.2758 37.2992 91.5254 37.5487 91.5254 38.0377V44.4602C91.5254 44.6792 91.7036 44.8524 91.9176 44.8524H94.179C94.398 44.8524 94.5711 44.6792 94.5711 44.4602V38.0428C95.2332 37.6761 96.2468 37.2992 96.7918 37.2992C97.2807 37.2992 97.5303 37.5487 97.5303 38.0377V44.4602C97.5303 44.6792 97.7085 44.8524 97.9225 44.8524H100.184C100.398 44.8524 100.576 44.6792 100.576 44.4602V37.6404C100.576 35.4198 99.8019 34.34 98.2077 34.34ZM71.4988 37.5131C72.5633 37.0496 73.0675 36.3467 73.0675 35.2924V33.8561C73.0675 32.5319 72.6499 30.7646 69.0439 30.7646H63.8743C63.6553 30.7646 63.4821 30.9428 63.4821 31.1567V44.4602C63.4821 44.6792 63.6604 44.8524 63.8743 44.8524H69.4921C72.1253 44.8524 73.5769 43.6555 73.5769 41.4858V40.1106C73.5769 38.8679 72.7212 37.7983 71.5039 37.508L71.4988 37.5131ZM66.6552 33.3214H68.6211C69.4615 33.3214 69.8894 33.6575 69.8894 34.3145V35.542C69.8894 35.7763 69.7977 36.5352 68.6211 36.5352H66.6552V33.3163V33.3214ZM70.3987 41.0681C70.3987 41.9289 69.869 42.2956 68.6211 42.2956H66.6552V39.0156H69.0694C69.5685 39.0156 70.4038 39.1684 70.4038 40.2023V41.0681H70.3987ZM101.676 22.5339C101.89 22.5339 102.068 22.3607 102.068 22.1417V20.3795C102.068 17.4611 100.744 16.1063 97.9021 16.1063C95.0601 16.1063 93.4761 17.4967 93.4761 20.2318V22.646C93.4761 25.4676 94.9837 26.8377 98.0905 26.8377C99.2365 26.8377 100.637 26.5728 101.488 26.3436C101.661 26.2978 101.778 26.1399 101.778 25.9616V24.3369C101.778 24.2147 101.722 24.1026 101.63 24.0313C101.559 23.9753 101.472 23.9447 101.386 23.9447C101.355 23.9447 101.325 23.9447 101.294 23.9549C100.352 24.179 99.155 24.3369 98.391 24.3369C96.9598 24.3369 96.5269 23.9855 96.5269 22.8344V22.539H101.681L101.676 22.5339ZM96.5218 19.8039C96.5218 18.933 96.9904 18.4899 97.9225 18.4899C98.8545 18.4899 99.1907 18.8821 99.1907 19.8039V20.247H96.5218V19.8039ZM132.847 32.7611C132.847 32.2263 132.5 31.9207 131.94 31.9207H130.82V34.4826H131.38V33.576H131.711L132.312 34.4826H132.938L132.286 33.52C132.633 33.4283 132.847 33.1584 132.847 32.7611ZM131.915 33.1074H131.38V32.3995H131.915C132.169 32.3995 132.312 32.5574 132.312 32.7611C132.312 32.9496 132.164 33.1074 131.915 33.1074ZM55.1037 34.34C51.2533 34.34 50.4485 36.6065 50.4485 38.5063V40.9001C50.4485 42.7998 51.2584 45.0663 55.1037 45.0663C58.9491 45.0663 59.7589 42.7998 59.7589 40.9001V38.5063C59.7589 36.6065 58.9542 34.34 55.1037 34.34ZM56.7132 40.9816C56.7132 42.2396 55.8372 42.5044 55.1037 42.5044C54.3703 42.5044 53.4943 42.2396 53.4943 40.9816V38.4197C53.4943 37.1616 54.3703 36.8968 55.1037 36.8968C55.8372 36.8968 56.7132 37.1616 56.7132 38.4197V40.9816ZM65.1068 26.2265V16.7022C65.1068 16.4882 64.9286 16.31 64.7146 16.31H62.4482C62.2342 16.31 62.056 16.4882 62.056 16.7022V23.1247C61.3939 23.4863 60.3803 23.8632 59.8353 23.8632C59.3464 23.8632 59.0917 23.6137 59.0917 23.1247V16.7022C59.0917 16.4882 58.9186 16.31 58.6996 16.31H56.4382C56.2192 16.31 56.046 16.4882 56.046 16.7022V23.5271C56.046 25.7477 56.8202 26.8275 58.4143 26.8275C59.6367 26.8275 61.2869 26.4302 62.5195 25.8343L62.7385 26.3691C62.7996 26.5168 62.9422 26.6136 63.1001 26.6136H64.7096C64.9235 26.6136 65.1017 26.4353 65.1017 26.2214L65.1068 26.2265Z" fill="#EA0029"/>
</svg>
